<?xml version="1.0" encoding="UTF-8" standalone="no"?>
<!DOCTYPE svg PUBLIC "-//W3C//DTD SVG 1.1//EN" "http://www.w3.org/Graphics/SVG/1.1/DTD/svg11.dtd">
<svg width="100%" height="100%" viewBox="0 0 330 430" version="1.1" xmlns="http://www.w3.org/2000/svg" xmlns:xlink="http://www.w3.org/1999/xlink" xml:space="preserve" xmlns:serif="http://www.serif.com/" style="fill-rule:evenodd;clip-rule:evenodd;stroke-linecap:round;stroke-linejoin:round;stroke-miterlimit:1.5;">
    <g id="Packateer" transform="matrix(0.434515,0,0,0.434515,-119.835,0.0488407)">
        <g id="Mouse" transform="matrix(38.8474,0,0,38.8474,-23818.5,-13570.7)">
            <g transform="matrix(-1.28571,0.00317318,-0.00205669,-0.833331,1415.02,648.063)">
                <path d="M615.47,343.794L615.401,343.794" style="fill:none;stroke:black;stroke-width:0.01px;"/>
            </g>
            <g id="Head" transform="matrix(-1.28571,0.00317318,-0.00205669,-0.833331,1415.02,648.063)">
                <path d="M604.582,343.736L605.362,341.982C605.362,341.982 605.195,340.303 606.146,338.385C606.537,337.595 607.052,336.763 607.503,335.99C608.35,334.537 609.195,332.397 610.044,332.4C610.894,332.403 611.748,334.55 612.6,336.01C612.93,336.576 613.595,337.246 614.003,338.415C614.851,340.847 614.695,342.018 614.695,342.018L615.47,343.794" style="fill:rgb(207,207,207);stroke:black;stroke-width:0.11px;"/>
            </g>
            <g id="Whiskers-Right-Side" serif:id="Whiskers Right Side" transform="matrix(1,0,0,1,0,1.52166)">
                <path d="M630.772,370.091C630.937,369.962 631.091,369.958 631.25,369.911C631.425,369.86 631.6,369.858 631.78,369.858C632.141,369.858 632.578,369.929 632.936,370.091C633.356,370.281 633.658,370.574 634,371" style="fill:none;stroke:black;stroke-width:0.12px;"/>
                <g transform="matrix(0.854415,0.15663,-0.180314,0.983609,158.572,-92.4792)">
                    <path d="M630.772,370.091C630.937,369.962 631.091,369.958 631.25,369.911C631.425,369.86 631.6,369.858 631.78,369.858C632.141,369.858 632.578,369.929 632.936,370.091C633.356,370.281 633.658,370.574 634,371" style="fill:none;stroke:black;stroke-width:0.13px;"/>
                </g>
                <g transform="matrix(0.627222,0.21936,-0.304589,0.870922,347.843,-90.0876)">
                    <path d="M630.772,370.091C630.937,369.962 631.091,369.958 631.25,369.911C631.425,369.86 631.6,369.858 631.78,369.858C632.141,369.858 632.578,369.929 632.936,370.091C633.356,370.281 633.658,370.574 634,371" style="fill:none;stroke:black;stroke-width:0.15px;"/>
                </g>
            </g>
            <g id="Whiskers-Left-Side" serif:id="Whiskers Left Side" transform="matrix(-1,0,0,1,1260,1.52166)">
                <path d="M630.772,370.091C630.937,369.962 631.091,369.958 631.25,369.911C631.425,369.86 631.6,369.858 631.78,369.858C632.141,369.858 632.578,369.929 632.936,370.091C633.356,370.281 633.658,370.574 634,371" style="fill:none;stroke:black;stroke-width:0.12px;"/>
                <g transform="matrix(0.854415,0.15663,-0.180314,0.983609,158.572,-92.4792)">
                    <path d="M630.772,370.091C630.937,369.962 631.091,369.958 631.25,369.911C631.425,369.86 631.6,369.858 631.78,369.858C632.141,369.858 632.578,369.929 632.936,370.091C633.356,370.281 633.658,370.574 634,371" style="fill:none;stroke:black;stroke-width:0.13px;"/>
                </g>
                <g transform="matrix(0.627222,0.21936,-0.304589,0.870922,347.843,-90.0876)">
                    <path d="M630.772,370.091C630.937,369.962 631.091,369.958 631.25,369.911C631.425,369.86 631.6,369.858 631.78,369.858C632.141,369.858 632.578,369.929 632.936,370.091C633.356,370.281 633.658,370.574 634,371" style="fill:none;stroke:black;stroke-width:0.15px;"/>
                </g>
            </g>
            <g id="Nose" transform="matrix(1,0,0,-1,0.325609,741.613)">
                <path d="M629.674,369.091C629.713,369.093 629.754,369.138 629.793,369.208C629.871,369.343 630.063,369.68 630.139,369.812C630.175,369.875 630.186,369.931 630.174,369.962C630.163,369.993 630.129,370 630.07,370L629.291,370C629.228,370 629.186,369.996 629.174,369.962C629.163,369.927 629.181,369.862 629.221,369.793C629.297,369.659 629.486,369.33 629.561,369.198C629.599,369.132 629.636,369.089 629.674,369.091Z" style="stroke:black;stroke-width:0.01px;"/>
            </g>
            <g id="Body" transform="matrix(0.813659,0,0,1.18175,118.718,-56.9603)">
                <path d="M621.004,355.841C621.283,350.933 624.402,349.026 628.374,349.026C632.347,349.026 635.578,350.93 635.746,355.841" style="fill:rgb(207,207,207);stroke:black;stroke-width:0.12px;"/>
            </g>
            <g id="Ear" transform="matrix(-0.385677,1.20335,1.20335,0.385677,428.404,-523.244)">
                <g transform="matrix(1.43577,0,0,1.4563,-269.614,-164.039)">
                    <ellipse cx="619.853" cy="360.609" rx="1.147" ry="1.109" style="fill:rgb(228,228,228);"/>
                </g>
                <g transform="matrix(1.43577,0,0,1.4563,-269.614,-164.039)">
                    <path d="M619.853,361.719C619.219,361.719 618.705,361.222 618.705,360.609C618.705,359.997 619.219,359.5 619.853,359.5C620.486,359.5 621,359.997 621,360.609" style="fill:rgb(228,228,228);stroke:black;stroke-width:0.06px;"/>
                </g>
                <g transform="matrix(1.43577,0,0,1.4563,-269.614,-164.039)">
                    <path d="M621,360.609C621,360.76 620.969,360.904 620.912,361.035" style="fill:rgb(235,235,235);stroke:black;stroke-width:0.06px;"/>
                </g>
            </g>
            <g id="Ear1" serif:id="Ear" transform="matrix(0.385677,1.20335,-1.20335,0.385677,831.604,-523.244)">
                <g transform="matrix(1.43577,0,0,1.4563,-269.614,-164.039)">
                    <ellipse cx="619.853" cy="360.609" rx="1.147" ry="1.109" style="fill:rgb(228,228,228);"/>
                </g>
                <g transform="matrix(1.43577,0,0,1.4563,-269.614,-164.039)">
                    <path d="M619.853,361.719C619.219,361.719 618.705,361.222 618.705,360.609C618.705,359.997 619.219,359.5 619.853,359.5C620.486,359.5 621,359.997 621,360.609" style="fill:rgb(228,228,228);stroke:black;stroke-width:0.06px;"/>
                </g>
                <g transform="matrix(1.43577,0,0,1.4563,-269.614,-164.039)">
                    <path d="M621,360.609C621,360.76 620.969,360.904 620.912,361.035" style="fill:rgb(235,235,235);stroke:black;stroke-width:0.06px;"/>
                </g>
            </g>
            <g id="Tail" transform="matrix(0.664449,0,0,0.664449,211.059,119.288)">
                <path d="M629.5,355.5C629.5,354.833 629.583,354.162 629.5,353.5C629.417,352.833 629.25,352 629,351.5C628.789,351.078 628.428,350.75 628.095,350.5C627.797,350.276 627.539,350.116 627.101,349.844C626.849,349.688 626.491,349.494 626.254,349.135C626.114,348.923 626.019,348.497 626,348.283C625.958,347.801 626.188,347.083 626.271,347C626.355,346.917 626.424,347.75 626.5,348C626.553,348.175 626.645,348.377 626.728,348.5C626.796,348.6 626.898,348.675 627,348.741C627.129,348.824 627.333,348.915 627.5,349C627.75,349.127 628.167,349.333 628.5,349.5C628.696,349.598 629.09,349.81 629.416,350C629.643,350.132 629.941,350.424 630.001,350.5C630.218,350.777 630.377,350.989 630.5,351.269C630.667,351.648 630.88,352.322 631,352.777C631.105,353.178 631.179,353.588 631.22,354C631.265,354.454 631.253,355 631.27,355.5" style="fill:rgb(207,207,207);stroke:black;stroke-width:0.18px;"/>
            </g>
            <g id="Eye" transform="matrix(1,0,0,1,12.5,1.5)">
                <g transform="matrix(1.5,0,0,1,-307.75,0)">
                    <ellipse cx="616" cy="365.5" rx="0.5" ry="1" style="stroke:black;stroke-width:0.01px;"/>
                </g>
                <g transform="matrix(1,0,0,1,1.10199,2.32614)">
                    <ellipse cx="615.25" cy="362.837" rx="0.25" ry="0.337" style="fill:rgb(235,235,235);stroke:black;stroke-width:0.01px;"/>
                </g>
            </g>
            <g id="Eye1" serif:id="Eye" transform="matrix(-1,0,0,1,1247.5,1.5)">
                <g transform="matrix(1.5,0,0,1,-307.75,0)">
                    <ellipse cx="616" cy="365.5" rx="0.5" ry="1" style="stroke:black;stroke-width:0.01px;"/>
                </g>
                <g transform="matrix(1,0,0,1,1.10199,2.32614)">
                    <ellipse cx="615.25" cy="362.837" rx="0.25" ry="0.337" style="fill:rgb(235,235,235);stroke:black;stroke-width:0.01px;"/>
                </g>
            </g>
        </g>
        <g id="Backpack" transform="matrix(0.731461,0,0,-0.578305,203.607,717.008)">
            <g id="Layer1">
                <path d="M400,380C397.222,458.302 398.53,743.333 400,820C400.14,827.285 405.487,834.44 408.82,840C411.806,844.981 415.531,849.653 420,853.361C425.197,857.672 435,863.845 440,865.866C443.093,867.116 446.664,865.496 450,865.488C508.333,865.336 731.136,865.871 790,864.956C794.695,864.883 799.066,862.253 803.186,860C807.744,857.507 813.495,853.333 817.348,850C820.733,847.072 823.92,843.786 826.307,840C829.112,835.551 832.692,826.639 834.177,823.306C834.648,822.251 835.214,821.155 835.218,820C835.484,746.986 836.066,460.223 835.77,385.223C835.75,380.09 831.435,360.508 830,355.881C828.449,350.881 828.352,349.473 820,330C808.215,302.523 799.088,292.012 790,280C778.949,265.393 742.887,234.281 710,214.973C687.645,201.848 664.733,196.882 660,195.754C634.464,189.669 601.086,191.723 580,196.117C568.136,198.59 540.777,210.403 530,215.12C520.638,219.219 496.429,235.265 490,240C483.333,244.909 455.729,272.712 450,280C444.926,286.454 417.451,321.816 406.559,350C401.267,363.694 400.502,365.849 400,380Z" style="fill:rgb(146,146,146);stroke:black;stroke-width:6.98px;"/>
                <g transform="matrix(1,0,0,1.308,65.8855,-27.1904)">
                    <path d="M350,275C350,257.553 347.318,234.392 358.522,222.711C370.355,210.374 396.572,210 415,210" style="fill:none;stroke:black;stroke-width:12.37px;"/>
                </g>
                <g transform="matrix(-1,0,0,1.308,1175,-24.6803)">
                    <path d="M350,275C350,257.553 347.318,234.392 358.522,222.711C370.355,210.374 396.572,210 415,210" style="fill:none;stroke:black;stroke-width:12.37px;"/>
                </g>
                <path d="M443.548,410C443.637,403.127 443.816,389.38 445.483,380C447.086,370.979 451.635,358.817 453.549,353.723C458.041,341.77 464.841,328.387 476.622,310C482.475,300.866 499.332,278.196 520,263.884C545.361,246.322 576.459,237.565 600,235.479C621.124,233.608 687.093,236.868 713.385,260C745.296,288.077 763.542,310.696 780,340C783.566,346.349 786.658,353.037 788.788,360C791.117,367.618 792.977,377.022 793.978,385.706C795.131,395.706 795.513,411.902 795.705,420" style="fill:none;stroke:black;stroke-width:10.47px;"/>
                <path d="M722.829,328.207L723.435,300L723.107,270" style="fill:none;stroke:black;stroke-width:10.47px;"/>
            </g>
            <g transform="matrix(1,0,0,1,0,5.53782)">
                <path d="M790,590C732.96,582.411 507.518,588.33 450,590C441.015,590.261 439.062,650.027 450,650C507.542,649.856 732.459,650.305 790,650C796.02,649.968 800.083,591.341 790,590Z" style="fill:rgb(170,170,170);stroke:black;stroke-width:6.98px;"/>
            </g>
            <g transform="matrix(0.941176,0,0,2.60576,36.4706,-881.86)">
                <path d="M790,590L450,590C450,590 429.064,647.654 450,650C463.474,651.51 541.011,652.664 618.8,652.883C698.365,653.107 778.194,652.352 790,650C809.194,646.175 790,590 790,590Z" style="fill:rgb(170,170,170);stroke:black;stroke-width:3.93px;"/>
            </g>
            <g transform="matrix(0.130286,0,0,0.333333,541.371,593.333)">
                <rect x="450" y="590" width="340" height="60" style="fill:rgb(217,217,217);stroke:black;stroke-width:30.27px;"/>
            </g>
        </g>
    </g>
</svg>
