<?xml version="1.0" encoding="UTF-8" standalone="no"?>
<!DOCTYPE svg PUBLIC "-//W3C//DTD SVG 1.1//EN" "http://www.w3.org/Graphics/SVG/1.1/DTD/svg11.dtd">
<svg width="100%" height="100%" viewBox="0 0 596 842" version="1.1" xmlns="http://www.w3.org/2000/svg" xmlns:xlink="http://www.w3.org/1999/xlink" xml:space="preserve" xmlns:serif="http://www.serif.com/" style="fill-rule:evenodd;clip-rule:evenodd;stroke-linecap:round;stroke-linejoin:round;stroke-miterlimit:1.5;">
    <g id="Packateer">
        <g id="Mouse" transform="matrix(34.196,0,0,34.4948,-21246.2,-12058)">
            <g transform="matrix(-1.28571,0.00317318,-0.00205669,-0.833331,1415.02,648.063)">
                <path d="M615.47,343.794L615.401,343.794" style="fill:none;stroke:black;stroke-width:0.01px;"/>
            </g>
            <g id="Head" transform="matrix(-1.28571,0.00317318,-0.00205669,-0.833331,1415.02,648.063)">
                <path d="M604.582,343.736L605.362,341.982C605.362,341.982 605.195,340.303 606.146,338.385C606.537,337.595 607.052,336.763 607.503,335.99C608.35,334.537 609.195,332.397 610.044,332.4C610.894,332.403 611.748,334.55 612.6,336.01C612.93,336.576 613.595,337.246 614.003,338.415C614.851,340.847 614.695,342.018 614.695,342.018L615.47,343.794" style="fill:rgb(207,207,207);stroke:black;stroke-width:0.05px;"/>
            </g>
            <g id="Whiskers-Right-Side" serif:id="Whiskers Right Side" transform="matrix(1,0,0,1,0,1.52166)">
                <path d="M630.772,370.091C630.937,369.962 631.091,369.958 631.25,369.911C631.425,369.86 631.6,369.858 631.78,369.858C632.141,369.858 632.578,369.929 632.936,370.091C633.356,370.281 633.658,370.574 634,371" style="fill:none;stroke:black;stroke-width:0.06px;"/>
                <g transform="matrix(0.854415,0.15663,-0.180314,0.983609,158.572,-92.4792)">
                    <path d="M630.772,370.091C630.937,369.962 631.091,369.958 631.25,369.911C631.425,369.86 631.6,369.858 631.78,369.858C632.141,369.858 632.578,369.929 632.936,370.091C633.356,370.281 633.658,370.574 634,371" style="fill:none;stroke:black;stroke-width:0.06px;"/>
                </g>
                <g transform="matrix(0.627222,0.21936,-0.304589,0.870922,347.843,-90.0876)">
                    <path d="M630.772,370.091C630.937,369.962 631.091,369.958 631.25,369.911C631.425,369.86 631.6,369.858 631.78,369.858C632.141,369.858 632.578,369.929 632.936,370.091C633.356,370.281 633.658,370.574 634,371" style="fill:none;stroke:black;stroke-width:0.07px;"/>
                </g>
            </g>
            <g id="Whiskers-Left-Side" serif:id="Whiskers Left Side" transform="matrix(-1,0,0,1,1260,1.52166)">
                <path d="M630.772,370.091C630.937,369.962 631.091,369.958 631.25,369.911C631.425,369.86 631.6,369.858 631.78,369.858C632.141,369.858 632.578,369.929 632.936,370.091C633.356,370.281 633.658,370.574 634,371" style="fill:none;stroke:black;stroke-width:0.06px;"/>
                <g transform="matrix(0.854415,0.15663,-0.180314,0.983609,158.572,-92.4792)">
                    <path d="M630.772,370.091C630.937,369.962 631.091,369.958 631.25,369.911C631.425,369.86 631.6,369.858 631.78,369.858C632.141,369.858 632.578,369.929 632.936,370.091C633.356,370.281 633.658,370.574 634,371" style="fill:none;stroke:black;stroke-width:0.06px;"/>
                </g>
                <g transform="matrix(0.627222,0.21936,-0.304589,0.870922,347.843,-90.0876)">
                    <path d="M630.772,370.091C630.937,369.962 631.091,369.958 631.25,369.911C631.425,369.86 631.6,369.858 631.78,369.858C632.141,369.858 632.578,369.929 632.936,370.091C633.356,370.281 633.658,370.574 634,371" style="fill:none;stroke:black;stroke-width:0.07px;"/>
                </g>
            </g>
            <g id="Nose" transform="matrix(1,0,0,-1,0.325609,741.613)">
                <path d="M629.674,369.091C629.713,369.093 629.754,369.138 629.793,369.208C629.871,369.343 630.063,369.68 630.139,369.812C630.175,369.875 630.186,369.931 630.174,369.962C630.163,369.993 630.129,370 630.07,370L629.291,370C629.228,370 629.186,369.996 629.174,369.962C629.163,369.927 629.181,369.862 629.221,369.793C629.297,369.659 629.486,369.33 629.561,369.198C629.599,369.132 629.636,369.089 629.674,369.091Z"/>
            </g>
            <g id="Body" transform="matrix(0.813659,0,0,1.18175,118.718,-56.9603)">
                <path d="M621.004,355.841C621.283,350.933 624.402,349.026 628.374,349.026C632.347,349.026 635.578,350.93 635.746,355.841" style="fill:rgb(207,207,207);stroke:black;stroke-width:0.06px;"/>
            </g>
            <g id="Ear" transform="matrix(-0.385677,1.20335,1.20335,0.385677,428.404,-523.244)">
                <g transform="matrix(1.43577,0,0,1.4563,-269.614,-164.039)">
                    <ellipse cx="619.853" cy="360.609" rx="1.147" ry="1.109" style="fill:rgb(228,228,228);"/>
                </g>
                <g transform="matrix(1.43577,0,0,1.4563,-269.614,-164.039)">
                    <path d="M619.853,361.719C619.219,361.719 618.705,361.222 618.705,360.609C618.705,359.997 619.219,359.5 619.853,359.5C620.486,359.5 621,359.997 621,360.609" style="fill:rgb(228,228,228);stroke:black;stroke-width:0.03px;"/>
                </g>
                <g transform="matrix(1.43577,0,0,1.4563,-269.614,-164.039)">
                    <path d="M621,360.609C621,360.76 620.969,360.904 620.912,361.035" style="fill:rgb(235,235,235);stroke:black;stroke-width:0.03px;"/>
                </g>
            </g>
            <g id="Ear1" serif:id="Ear" transform="matrix(0.385677,1.20335,-1.20335,0.385677,831.604,-523.244)">
                <g transform="matrix(1.43577,0,0,1.4563,-269.614,-164.039)">
                    <ellipse cx="619.853" cy="360.609" rx="1.147" ry="1.109" style="fill:rgb(228,228,228);"/>
                </g>
                <g transform="matrix(1.43577,0,0,1.4563,-269.614,-164.039)">
                    <path d="M619.853,361.719C619.219,361.719 618.705,361.222 618.705,360.609C618.705,359.997 619.219,359.5 619.853,359.5C620.486,359.5 621,359.997 621,360.609" style="fill:rgb(228,228,228);stroke:black;stroke-width:0.03px;"/>
                </g>
                <g transform="matrix(1.43577,0,0,1.4563,-269.614,-164.039)">
                    <path d="M621,360.609C621,360.76 620.969,360.904 620.912,361.035" style="fill:rgb(235,235,235);stroke:black;stroke-width:0.03px;"/>
                </g>
            </g>
            <g id="Tail" transform="matrix(0.664449,0,0,0.664449,211.059,119.288)">
                <path d="M629.5,355.5C629.5,354.833 629.583,354.162 629.5,353.5C629.417,352.833 629.25,352 629,351.5C628.789,351.078 628.428,350.75 628.095,350.5C627.797,350.276 627.539,350.116 627.101,349.844C626.849,349.688 626.491,349.494 626.254,349.135C626.114,348.923 626.019,348.497 626,348.283C625.958,347.801 626.188,347.083 626.271,347C626.355,346.917 626.424,347.75 626.5,348C626.553,348.175 626.645,348.377 626.728,348.5C626.796,348.6 626.898,348.675 627,348.741C627.129,348.824 627.333,348.915 627.5,349C627.75,349.127 628.167,349.333 628.5,349.5C628.696,349.598 629.09,349.81 629.416,350C629.643,350.132 629.941,350.424 630.001,350.5C630.218,350.777 630.377,350.989 630.5,351.269C630.667,351.648 630.88,352.322 631,352.777C631.105,353.178 631.179,353.588 631.22,354C631.265,354.454 631.253,355 631.27,355.5" style="fill:rgb(207,207,207);stroke:black;stroke-width:0.09px;"/>
            </g>
            <g id="Eye" transform="matrix(1,0,0,1,12.5,1.5)">
                <g transform="matrix(1.5,0,0,1,-307.75,0)">
                    <ellipse cx="616" cy="365.5" rx="0.5" ry="1"/>
                </g>
                <g transform="matrix(1,0,0,1,1.10199,2.32614)">
                    <ellipse cx="615.25" cy="362.837" rx="0.25" ry="0.337" style="fill:rgb(235,235,235);"/>
                </g>
            </g>
            <g id="Eye1" serif:id="Eye" transform="matrix(-1,0,0,1,1247.5,1.5)">
                <g transform="matrix(1.5,0,0,1,-307.75,0)">
                    <ellipse cx="616" cy="365.5" rx="0.5" ry="1"/>
                </g>
                <g transform="matrix(1,0,0,1,1.10199,2.32614)">
                    <ellipse cx="615.25" cy="362.837" rx="0.25" ry="0.337" style="fill:rgb(235,235,235);"/>
                </g>
            </g>
        </g>
        <g id="Backpack" transform="matrix(0.550535,0,0,-0.550535,140.876,550.311)">
            <g transform="matrix(1.20156,0,0,1.21206,-52.577,-222.506)">
                <path d="M366.531,240C380.698,245.167 405.752,254.202 423.334,265C432.251,270.476 451.294,287.431 463.334,300C475.479,312.679 487.333,335.667 489,341C490.448,345.632 492.143,350.223 493,355C494.167,361.5 495.899,371.607 496,380C496.5,421.667 495.833,565 496,605C496.021,610.011 496.811,614.992 497,620C497.207,625.5 497.577,632.667 497.244,638C496.949,642.717 496.689,647.586 495,652C492.959,657.333 489,665.5 485,670C481.314,674.146 476.02,676.638 471,679C465.333,681.667 457.829,684.197 451,686C443,688.111 432.499,691 423,691.669C411.167,692.502 156.5,691.667 131,691C123.807,690.812 116.833,688 110,686C103.221,684.016 95.5,681.667 90,679C85.258,676.701 80.885,673.561 77,670C73,666.333 68.5,661.5 66,657C63.643,652.757 62.783,647.667 62,643C61.226,638.392 61.416,633.667 61.299,629C61.183,624.335 61.183,619.5 61.299,615C61.412,610.662 61.98,606.34 62,602C62.117,576.667 62,499.167 62,463C62,437 61.667,400.5 62,385C62.108,379.957 63.221,374.984 64,370C64.833,364.667 65.833,358.167 67,353C68.069,348.266 69.686,343.672 71,339C71.756,336.313 78.534,323.668 87,312C95.337,300.51 105.342,289.999 109,287C113.594,283.233 125.286,273.066 137,265C146.537,258.434 156.388,253.597 160,252C168.667,248.167 180.833,242.5 188,240C192.814,238.321 198.02,238.096 203,237C211.333,235.167 226.104,230.304 238,229C250.167,227.667 308.5,228.5 319,229C325.734,229.321 332.432,230.48 339,232C346.922,233.833 357.553,236.726 366.531,240Z" style="fill:rgb(159,153,162);stroke:black;stroke-width:3.01px;"/>
            </g>
            <g transform="matrix(1.20156,0,0,1.21206,-52.577,-222.506)">
                <path d="M104,372C108.817,344.97 121.586,318.981 146,300C171.527,280.154 206.941,263.227 233,261C258.914,258.785 287.333,256.333 311,259C333.022,261.481 356.333,267.5 375,277C393.373,286.351 410.5,302.833 423,316C434.076,327.666 444.797,346.333 450,356C452.921,361.426 452.811,368 454.217,374" style="fill:none;stroke:black;stroke-width:3.01px;"/>
            </g>
            <g transform="matrix(1.20156,0,0,1.21206,-52.577,-222.506)">
                <path d="M380,280C380.667,282.333 381.604,284.606 382,287C382.441,289.667 382.648,293 382.648,296C382.648,299 382.216,302 382,305" style="fill:none;stroke:black;stroke-width:3.01px;"/>
            </g>
            <g transform="matrix(1.20156,0,0,1.21206,-52.577,-222.506)">
                <path d="M193,239.5C192.667,231.667 190.667,223.583 192,216C193.333,208.417 196.5,200.167 201,194C205.5,187.833 212.5,182.54 219,179C225.413,175.507 234.5,173.927 240,172.76C243.921,171.928 257.167,168.667 260,168C262.833,167.333 266,168 269,168C273,168 279.002,167.844 284,168C289.333,168.167 295.35,168.449 301,169C307.833,169.667 317.5,169.833 325,172C332.449,174.152 339.833,177.833 346,182C352.057,186.093 358.578,191.5 362,197C365.268,202.253 365.698,209.167 366.531,215C367.333,220.612 367,227.833 367,232C367,234.671 366.687,237.333 366.531,240" style="fill:rgb(161,156,164);stroke:black;stroke-width:3.01px;"/>
            </g>
            <g transform="matrix(1.20156,0,0,1.21206,-52.577,-222.506)">
                <path d="M237.768,230C237.768,223.333 236.346,215 237.768,210C238.967,205.785 242.199,201.54 246.302,200C251.674,197.983 262.07,197.9 270,197.9C281.175,197.9 304.918,197.983 313.354,200C317.36,200.958 319.48,206.04 320.612,210C321.822,214.231 320.612,222.016 320.612,225.383L320.612,230.204" style="fill:rgb(170,165,173);stroke:black;stroke-width:3.01px;"/>
            </g>
            <g transform="matrix(1.20156,0,0,1.21206,-52.577,-222.506)">
                <path d="M247,200C248.135,196.506 248.71,190.858 250,187.418C251.572,183.228 252.667,173.31 256,170C259.333,166.69 265.046,168.402 270,168C275.662,167.54 284.701,167.593 291,168C296.918,168.383 304.186,168.333 307.792,170C311.033,171.498 310.709,176.667 311.636,180C312.542,183.259 313.067,186.667 313.354,190C313.639,193.321 313.354,196.667 313.354,200" style="fill:rgb(148,142,151);stroke:black;stroke-width:3.01px;"/>
            </g>
            <g transform="matrix(1.20156,0,0,1.21206,-52.577,-222.506)">
                <path d="M444.79,540C444.79,563.333 445.588,595 444.79,610C444.425,616.845 442.465,625 440,630C437.916,634.228 433.333,637.5 430,640C427.019,642.236 423.583,643.976 420,645C414.167,646.667 403.477,649.395 395,650C383.333,650.833 309.997,650.324 290,650C267.5,649.636 182.5,650.469 170,650C159.869,649.62 147.5,647.142 140,645C134.573,643.45 128.991,641.14 125,637.149C120.833,632.982 116.989,625.358 115,620C113.245,615.274 113.239,610.038 113.063,605C112.74,595.774 112.907,573.641 113.063,564.641C113.142,560.084 113.844,554.44 114,551C114.106,548.669 114,546 114,544L114,540.5" style="fill:rgb(105,98,109);stroke:black;stroke-width:3.01px;"/>
            </g>
            <g transform="matrix(1.20156,0,0,1.21206,-52.577,-222.506)">
                <path d="M115,495C119.949,493.962 128.118,493.772 134.696,493.772C145.53,493.772 164.893,494.926 180,495C221.717,495.205 345,495 385,495L420,495C429.115,495 441.719,494.167 447.346,495C450.03,495.397 452.346,497.689 453.767,500C455.304,502.5 456.517,506.539 456.569,510C456.644,515 456.574,525 454.217,530C452.019,534.662 447.371,538.554 442.424,540C436.721,541.667 427.475,540 420,540L200,540C190,540 177.5,539.616 170,540C164.948,540.259 160.048,541.974 155,542.303C149.116,542.687 141.454,542.675 134.696,542.303C127.707,541.919 118.013,542.051 113.063,540C109.107,538.361 106.622,533.963 105,530C103.294,525.833 102.827,520 102.827,515C102.827,510 102.971,503.333 105,500C106.938,496.816 111.353,495.765 115,495Z" style="fill:rgb(129,122,133);stroke:black;stroke-width:3.01px;"/>
            </g>
            <g transform="matrix(1.20156,0,0,1.21206,-52.577,-222.506)">
                <path d="M61.299,587.404L113.063,587.404" style="fill:none;stroke:black;stroke-width:3.01px;"/>
            </g>
            <g transform="matrix(1.20156,0,0,1.21206,-52.577,-222.506)">
                <path d="M444.79,587.404L495,587.404" style="fill:none;stroke:black;stroke-width:3.01px;"/>
            </g>
            <g transform="matrix(1.20156,0,0,1.21206,-52.577,-222.506)">
                <path d="M395.811,540L395,570.954" style="fill:none;stroke:black;stroke-width:3.01px;"/>
            </g>
            <g transform="matrix(1.20156,0,0,1.21206,-52.577,-222.506)">
                <path d="M239,572C240.053,569.998 243.687,567.535 244,567.412C247.291,566.116 247.252,566.24 249,566C254.314,565.271 260.197,565.256 265,565C273.5,564.547 288.333,564.667 296,565C301.039,565.219 307.167,565.667 311,567C314.148,568.095 317.5,570.333 319,573C320.5,575.667 320.5,580.167 320,583C319.533,585.647 318.167,588.411 316,590C313.5,591.833 308.859,593.428 305,594C300.5,594.667 293.833,593.833 289,594C284.656,594.15 280.167,594.781 276,595C272.004,595.21 267.833,595.313 264,595.313C260.332,595.313 256.167,595.386 253,595C250.271,594.668 247.333,594.333 245,593C242.667,591.667 240.268,589.17 239,587C237.789,584.926 237.394,582.379 237.394,579.977C237.394,577.477 237.899,574.094 239,572Z" style="fill:rgb(193,181,200);stroke:black;stroke-width:3.01px;"/>
            </g>
            <g transform="matrix(1.20156,0,0,1.21206,-52.577,-222.506)">
                <path d="M414.12,260C421.898,253.333 422.08,249.951 432.062,247.645C443.042,245.109 465.087,247.428 474.606,252.428C483.201,256.942 486.788,268.442 489.18,277.645C491.571,286.848 489.715,300.044 488.952,307.645C488.414,313.018 484.859,322.456 482.289,325.881" style="fill:rgb(159,153,162);stroke:black;stroke-width:3.01px;"/>
            </g>
            <g transform="matrix(1.20156,0,0,1.21206,-463.583,-222.506)">
                <path d="M489.18,260C481.401,253.333 481.219,249.951 471.238,247.645C460.257,245.109 438.213,247.428 428.693,252.428C420.098,256.942 416.511,268.442 414.12,277.645C411.729,286.848 413.585,300.044 414.347,307.645C414.886,313.018 418.44,322.456 421.01,325.881" style="fill:rgb(159,153,162);stroke:black;stroke-width:3.01px;"/>
            </g>
        </g>
    </g>
</svg>
